<?xml version="1.0" encoding="UTF-8" standalone="no"?><!DOCTYPE svg PUBLIC "-//W3C//DTD SVG 1.1//EN" "http://www.w3.org/Graphics/SVG/1.1/DTD/svg11.dtd"><svg width="100%" height="100%" viewBox="0 0 2813 1563" version="1.1" xmlns="http://www.w3.org/2000/svg" xmlns:xlink="http://www.w3.org/1999/xlink" xml:space="preserve" xmlns:serif="http://www.serif.com/" style="fill-rule:evenodd;clip-rule:evenodd;stroke-linecap:round;stroke-linejoin:round;stroke-miterlimit:1.5;"><g id="Arrow"><path d="M1454.26,362.445c1.346,-7.402 178.22,73.374 200.375,84.583c-19.816,10.233 -166.229,87.696 -189.717,90.212c-13.654,3.707 -3.295,-73.001 19.185,-87.397c12.949,-8.293 -633.054,10.585 -645.889,10.658c-12.835,0.073 -74.114,87.72 -93.793,95.924c-19.679,8.204 -231.274,-8.254 -238.744,-4.263c-7.471,3.991 52.698,-76.057 63.949,-85.266c11.252,-9.209 -53.633,-115.269 -68.213,-121.504c-7.992,-3.418 217.639,-4.44 234.482,-4.263c24.06,0.253 93.282,92.679 100.187,102.319c6.906,9.64 652.132,15.159 648.021,6.395c-15.754,-33.587 -29.843,-87.398 -29.843,-87.398Z" style="fill:none;stroke:#c53746;stroke-width:37.5px;"/><path d="M576.016,451.974c73.447,-1.141 228.242,-10.535 249.403,0" style="fill:none;stroke:#c53746;stroke-width:37.5px;"/><path d="M682.599,353.919c-0,-0 44.354,78.911 72.741,93.109" style="fill:none;stroke:#c53746;stroke-width:37.5px;"/><path d="M590.938,353.919c-0,-0 52.531,68.421 66.081,83.134" style="fill:none;stroke:#c53746;stroke-width:37.5px;"/><path d="M590.938,550.03c-0,0 59.719,-92.054 74.607,-98.056" style="fill:none;stroke:#c53746;stroke-width:37.5px;"/><path d="M665.545,558.75c0,0 75.816,-97.463 89.795,-106.776" style="fill:none;stroke:#c53746;stroke-width:37.5px;"/></g><g><path d="M2406.9,601.719c0,-37.513 -30.455,-67.969 -67.968,-67.969l-301.563,-0c-37.513,-0 -67.969,30.456 -67.969,67.969l0,135.937c0,37.513 30.456,67.969 67.969,67.969l301.563,-0c37.513,-0 67.968,-30.456 67.968,-67.969l0,-135.937Z" style="fill:none;stroke:#c53746;stroke-width:35.42px;"/><path id="Y" d="M2260.74,746.063c-5.412,0.054 -16.377,-2.064 -16.834,-11.654c-0.457,-9.59 0.186,-47.952 0,-49.208c-0.054,-3.486 -22.125,-36.325 -34.963,-51.798c-3.428,-4.131 -16.835,-20.719 -16.835,-20.719c0,0 -4.707,-4.46 0,-9.064c4.708,-4.604 10.143,-5.91 15.54,-6.475c5.376,-0.563 11.252,-0.845 14.244,2.59c2.992,3.435 25.836,34.687 27.194,37.553c1.358,2.866 10.359,15.54 10.359,15.54c0,-0 32.427,-51.29 37.554,-54.388c6.101,-3.687 15.148,-3.084 19.424,-1.295c4.276,1.789 10.226,6.285 11.654,9.065c1.269,2.469 -0.474,8.201 -2.59,10.359c-2.115,2.159 -49.269,61.332 -49.207,68.632c0.029,3.416 -0,43.847 -0,46.618c-0,9.246 -7.554,14.165 -15.54,14.244Z" style="fill:#c53746;"/><path d="M2072.26,732.603c0.722,7.581 4.693,14.27 14.272,14.272c16.69,0.003 19.467,-15.898 19.467,-15.898l-0,-48.327c-0,0 24.216,2.379 30.486,0c4.973,-1.886 7.666,-6.435 7.136,-14.272c-0.529,-7.837 -4.898,-15.836 -14.272,-14.272c-9.374,1.563 -21.408,-0 -21.408,-0c-0,-0 -0.706,-11.659 -0,-24.977c0.03,-6.359 48.903,5.326 57.089,0c8.399,-5.465 12.258,-28.022 -7.137,-28.544c-19.394,-0.522 -80.059,-6.127 -85.633,-0c-5.574,6.127 -2.378,107.041 0,132.018Z" style="fill:#c53746;"/></g><g id="Logo-Letters" serif:id="Logo Letters"><g id="I"><path id="I1" serif:id="I" d="M1793.75,675c-1.32,-1.32 9.255,-24.714 41,-24.714c31.745,-0 47.769,21.178 46.5,37.214c-5.594,70.702 -3.388,241.952 -3.125,265.625c0.263,23.673 -24.04,38.834 -40.625,36.231c-19.913,-3.125 -47.603,-9 -47.603,-47.604c-0,-41.728 -1.395,-250.746 3.853,-266.752Z" style="fill:#c53746;"/><path id="dot" d="M1759.38,526.272c0,-26.562 24.541,-79.014 78.125,-79.397c56.507,-0.404 81.371,44.11 81.371,78.246c-0,37.26 -47.85,81.129 -81.371,81.129c-39.771,-0 -78.125,-53.415 -78.125,-79.978Zm81.25,33.103c12.388,-2.449 30.621,-24.664 31.25,-39.353c0.336,-7.839 -8.86,-29.313 -31.25,-29.397c-22.391,-0.084 -34.371,18.786 -34.375,37.5c-0.004,15.589 19.107,34.268 34.375,31.25Z" style="fill:#c53746;"/></g><path id="M" d="M1243.75,953.125c0,0 19.988,-260.666 21.875,-281.25c1.603,-17.483 24.285,-43.75 53.125,-43.75c22.59,0 33.323,11.398 50,43.75c16.677,32.352 84.375,171.875 84.375,171.875c0,0 76.508,-150.834 87.5,-171.875c10.992,-21.041 22.234,-43.75 56.25,-43.75c34.016,0 45.163,27.783 46.875,43.75c1.834,17.103 20.256,239.952 18.75,281.25c-0.967,26.513 -30.911,34.377 -40.625,34.377c-9.714,0 -37.5,-6.986 -40.625,-34.377c-1.553,-28.815 -12.405,-104.807 -12.5,-150c-7.143,0.328 -49.669,89.086 -84.375,150c-28.062,43.174 -46.236,30.149 -62.5,0c-23.622,-43.787 -87.5,-153.125 -87.5,-153.125c0,0 -6.975,140.199 -12.5,153.125c-5.525,12.926 -5.655,36.231 -37.5,36.231c-31.845,-0 -40.625,-17.905 -40.625,-36.231Z" style="fill:#c53746;"/><g id="U"><path d="M903.125,659.375l0,159.375c0,0 -4.492,81.25 75,81.25c79.492,0 71.875,-66.009 71.875,-81.25l0,-159.375c0,-21.104 19.498,-31.25 40.625,-31.25c21.127,0 40.625,13.086 40.625,31.25l0,181.25c0,95.015 -90.271,148.731 -151.856,148.731c-130.335,-0 -157.519,-122.747 -157.519,-148.731l0,-181.25c0,0 3.647,-31.25 40.625,-31.25c36.978,0 40.625,24.202 40.625,31.25Z" style="fill:#c53746;"/><path d="M903.142,659.375l0.191,0l-0.004,159.375c0,0.004 0,0.008 0,0.011c0,0 -1.904,34.372 18.669,58.349c11.015,12.838 28.478,22.689 56.127,22.689c29.421,0.002 46.882,-9.052 57.202,-21.233c17.497,-20.651 14.478,-50.253 14.478,-59.816l0.01,-159.375c0.001,-10.997 5.263,-19.038 13.289,-24.234c7.453,-4.826 17.297,-7.196 27.521,-7.195c9.953,0.002 19.546,2.898 26.923,7.855c8.359,5.617 13.874,13.879 13.873,23.574l-0.026,181.25c-0.007,43.987 -19.34,79.129 -46.221,104.197c-31.232,29.125 -72.654,44.647 -105.78,44.641c-50.104,-0.008 -84.97,-18.142 -108.912,-41.948c-38.373,-38.154 -48.677,-90.881 -48.674,-106.89l0.031,-181.252c-0,-0 1.666,-14.263 14.142,-23.525c6,-4.454 14.5,-7.752 26.519,-7.75c12.714,0.002 21.49,2.864 27.532,6.905c11.54,7.72 13.111,19.743 13.11,24.372Zm-0.225,0l0.191,0c-0.001,-4.623 -1.573,-16.63 -13.101,-24.335c-6.037,-4.035 -14.805,-6.89 -27.507,-6.888c-12.003,0.002 -20.491,3.297 -26.481,7.747c-12.363,9.184 -14.084,23.284 -14.108,23.478l0.031,181.248c0.003,15.993 10.317,68.662 48.664,106.765c23.919,23.768 58.748,41.867 108.788,41.858c33.077,-0.005 74.432,-15.519 105.608,-44.611c26.822,-25.028 46.11,-60.108 46.103,-104.012l-0.026,-181.25c-0.001,-9.58 -5.465,-17.735 -13.726,-23.283c-7.324,-4.919 -16.848,-7.79 -26.728,-7.788c-10.151,0.001 -19.924,2.349 -27.324,7.142c-7.923,5.132 -13.117,13.071 -13.116,23.929l0.01,159.375c0,9.605 3.006,39.329 -14.566,60.072c-10.375,12.248 -27.922,21.377 -57.504,21.379c-27.803,0 -45.358,-9.918 -56.435,-22.827c-20.512,-23.904 -18.798,-58.089 -18.769,-58.629l-0.004,-159.37Z"/></g><g id="Y1" serif:id="Y"><path d="M584.375,987.5c-13.062,0.13 -39.522,-4.981 -40.625,-28.125c-1.103,-23.144 0.448,-115.719 0,-118.75c-0.131,-8.412 -53.393,-87.662 -84.375,-125c-8.272,-9.969 -40.625,-50 -40.625,-50c0,0 -11.36,-10.764 0,-21.875c11.36,-11.111 24.476,-14.262 37.5,-15.625c12.975,-1.358 27.154,-2.039 34.375,6.25c7.221,8.289 62.348,83.709 65.625,90.625c3.277,6.916 25,37.5 25,37.5c0,0 78.254,-123.774 90.625,-131.25c14.724,-8.898 36.557,-7.443 46.875,-3.125c10.318,4.318 24.678,15.166 28.125,21.875c3.062,5.959 -1.145,19.791 -6.25,25c-5.105,5.209 -118.899,148.008 -118.75,165.625c0.07,8.243 0,105.812 0,112.5c0,22.313 -18.229,34.183 -37.5,34.375Z" style="fill:#c53746;"/><path d="M418.614,665.76c-0.001,-0.001 -0.004,-0.005 -0.005,-0.006c-0.241,-0.233 -4.953,-4.857 -5.094,-11.106c-0.076,-3.351 1.156,-7.173 5.103,-11.033c5.456,-5.335 11.316,-8.842 17.376,-11.197c6.595,-2.564 13.429,-3.764 20.237,-4.476c7.352,-0.769 15.09,-1.318 21.735,-0.152c5.141,0.903 9.629,2.833 12.794,6.467c4.079,4.684 23.441,30.791 40.111,53.873c12.849,17.792 24.097,33.789 25.524,36.801c1.005,2.123 3.752,6.48 7.073,11.496c6.999,10.573 16.55,24.072 17.775,25.8c2.25,-3.554 35.341,-55.753 61.237,-93.274c13.571,-19.663 25.174,-35.294 29.333,-37.806c6.808,-4.112 15.132,-6.018 23.139,-6.452c9.351,-0.506 18.27,0.996 23.841,3.328c5.727,2.399 12.698,6.806 18.361,11.403c4.56,3.702 8.272,7.528 9.812,10.527c1.58,3.075 1.243,8.235 -0.162,13.238c-1.331,4.737 -3.615,9.332 -6.11,11.877c-3.341,3.408 -53.241,65.731 -87.288,113.333c-17.97,25.123 -31.528,46.139 -31.477,52.224c0.023,2.884 0.028,16.709 0.023,33.75c-0.008,31.653 -0.047,74.403 -0.048,78.75c-0.002,10.971 -4.408,19.419 -11.177,25.197c-7.006,5.98 -16.544,9.1 -26.352,9.195l0.002,0.191c-8.273,0.082 -21.896,-1.935 -31.109,-9.262c-5.416,-4.307 -9.314,-10.444 -9.725,-19.061c-0.333,-6.997 -0.424,-20.338 -0.4,-35.633c0.054,-35.288 0.719,-80.983 0.407,-83.097c-0.002,-0.009 -0.002,-0.018 -0.003,-0.027c-0.015,-0.965 -0.749,-2.873 -2.067,-5.556c-4.418,-8.997 -15.405,-26.54 -28.66,-46.203c-17.172,-25.475 -38.152,-54.506 -53.595,-73.12c-3.073,-3.704 -9.469,-11.557 -16.296,-19.965c-11.342,-13.971 -23.871,-29.476 -24.315,-30.024Zm165.759,321.532l0.002,0.191c9.798,-0.1 19.326,-3.219 26.322,-9.196c6.756,-5.772 11.151,-14.208 11.149,-25.162c-0.001,-4.347 0.019,-47.097 0.014,-78.75c-0.003,-17.041 -0.014,-30.865 -0.039,-33.75c-0.053,-6.09 13.498,-27.144 31.476,-52.302c34.033,-47.626 83.918,-109.981 87.259,-113.391c2.475,-2.527 4.736,-7.092 6.055,-11.795c1.387,-4.948 1.736,-10.05 0.173,-13.09c-1.533,-2.981 -5.228,-6.779 -9.763,-10.456c-5.649,-4.582 -12.601,-8.975 -18.314,-11.364c-5.547,-2.321 -14.431,-3.81 -23.742,-3.302c-7.97,0.435 -16.254,2.332 -23.028,6.428c-4.149,2.508 -15.709,18.121 -29.243,37.748c-26.802,38.866 -61.316,93.48 -61.316,93.48c-0.027,0.043 -0.073,0.069 -0.124,0.071c-0.051,0.001 -0.099,-0.023 -0.128,-0.064c0,-0 -10.423,-14.669 -17.921,-25.987c-3.334,-5.032 -6.09,-9.403 -7.1,-11.532c-1.426,-3.008 -12.669,-18.977 -25.507,-36.742c-16.669,-23.065 -36.03,-49.154 -40.108,-53.834c-3.113,-3.572 -7.532,-5.459 -12.587,-6.345c-6.615,-1.16 -14.316,-0.607 -21.634,0.16c-6.775,0.71 -13.576,1.904 -20.14,4.458c-6.015,2.339 -11.832,5.821 -17.247,11.119c-3.849,3.765 -5.063,7.486 -4.988,10.755c0.143,6.259 4.987,10.847 4.987,10.847c0.006,0.005 0.012,0.012 0.017,0.018c0,0 16.018,19.816 28.394,35.035c5.214,6.411 9.781,12.006 12.233,14.961c15.452,18.619 36.445,47.66 53.628,73.144c13.27,19.682 24.268,37.243 28.69,46.248c1.351,2.751 2.088,4.718 2.109,5.713c0.309,2.249 -0.346,47.889 -0.398,83.147c-0.022,15.286 0.069,28.619 0.403,35.612c0.404,8.479 4.239,14.518 9.569,18.757c9.135,7.264 22.645,9.252 30.847,9.17Z"/></g></g><g transform="matrix(150,0,0,150,2417.37,1189.87)"></g><text x="448.99px" y="1189.87px" style="font-family:'Futura-Medium', 'Futura', sans-serif;font-weight:500;font-size:150px;fill:#727272;">mar<tspan x="715.958px 790.665px 880.606px 967.911px 1084px " y="1189.87px 1189.87px 1189.87px 1189.87px 1189.87px ">kdown</tspan> con<tspan x="1454.17px 1526.97px 1609.95px 1671.48px 1713.81px 1796.79px " y="1189.87px 1189.87px 1189.87px 1189.87px 1189.87px 1189.87px ">verter</tspan> f<tspan x="1945.55px 2035.71px " y="1189.87px 1189.87px ">or</tspan> html</text></svg>